<svg width="415" height="114" viewBox="0 0 415 114" fill="none" xmlns="http://www.w3.org/2000/svg">
<rect x="91" y="112" width="232" height="2" rx="1" fill="url(#paint0_linear_73_2)"/>
<path d="M16.9976 86V30H27.7176L51.5576 69.52H45.8776L69.3176 30H79.9576L80.1176 86H67.9576L67.8776 48.64H70.1176L51.3976 80.08H45.5576L26.4376 48.64H29.1576V86H16.9976ZM118.924 86V77.6L118.124 75.76V60.72C118.124 58.0533 117.297 55.9733 115.644 54.48C114.044 52.9867 111.564 52.24 108.204 52.24C105.911 52.24 103.644 52.6133 101.404 53.36C99.2172 54.0533 97.3505 55.0133 95.8039 56.24L91.3239 47.52C93.6705 45.8667 96.4972 44.5867 99.8039 43.68C103.111 42.7733 106.471 42.32 109.884 42.32C116.444 42.32 121.537 43.8667 125.164 46.96C128.791 50.0533 130.604 54.88 130.604 61.44V86H118.924ZM105.804 86.64C102.444 86.64 99.5639 86.08 97.1639 84.96C94.7639 83.7867 92.9239 82.2133 91.6439 80.24C90.3639 78.2667 89.7239 76.0533 89.7239 73.6C89.7239 71.04 90.3372 68.8 91.5639 66.88C92.8439 64.96 94.8439 63.4667 97.5639 62.4C100.284 61.28 103.831 60.72 108.204 60.72H119.644V68H109.564C106.631 68 104.604 68.48 103.484 69.44C102.417 70.4 101.884 71.6 101.884 73.04C101.884 74.64 102.497 75.92 103.724 76.88C105.004 77.7867 106.737 78.24 108.924 78.24C111.004 78.24 112.871 77.76 114.524 76.8C116.177 75.7867 117.377 74.32 118.124 72.4L120.044 78.16C119.137 80.9333 117.484 83.04 115.084 84.48C112.684 85.92 109.591 86.64 105.804 86.64ZM163.011 86.64C158.371 86.64 154.238 85.7067 150.611 83.84C146.985 81.92 144.131 79.28 142.051 75.92C140.025 72.56 139.011 68.7467 139.011 64.48C139.011 60.16 140.025 56.3467 142.051 53.04C144.131 49.68 146.985 47.0667 150.611 45.2C154.238 43.28 158.371 42.32 163.011 42.32C167.545 42.32 171.491 43.28 174.851 45.2C178.211 47.0667 180.691 49.76 182.291 53.28L172.611 58.48C171.491 56.4533 170.078 54.96 168.371 54C166.718 53.04 164.905 52.56 162.931 52.56C160.798 52.56 158.878 53.04 157.171 54C155.465 54.96 154.105 56.32 153.091 58.08C152.131 59.84 151.651 61.9733 151.651 64.48C151.651 66.9867 152.131 69.12 153.091 70.88C154.105 72.64 155.465 74 157.171 74.96C158.878 75.92 160.798 76.4 162.931 76.4C164.905 76.4 166.718 75.9467 168.371 75.04C170.078 74.08 171.491 72.56 172.611 70.48L182.291 75.76C180.691 79.2267 178.211 81.92 174.851 83.84C171.491 85.7067 167.545 86.64 163.011 86.64ZM215.403 42.32C218.816 42.32 221.856 43.0133 224.523 44.4C227.243 45.7333 229.376 47.8133 230.923 50.64C232.469 53.4133 233.243 56.9867 233.243 61.36V86H220.763V63.28C220.763 59.8133 219.989 57.2533 218.443 55.6C216.949 53.9467 214.816 53.12 212.043 53.12C210.069 53.12 208.283 53.5467 206.683 54.4C205.136 55.2 203.909 56.4533 203.003 58.16C202.149 59.8667 201.723 62.0533 201.723 64.72V86H189.243V26.64H201.723V54.88L198.923 51.28C200.469 48.4 202.683 46.1867 205.563 44.64C208.443 43.0933 211.723 42.32 215.403 42.32ZM272.635 86.96C268.208 86.96 264.102 86.24 260.315 84.8C256.582 83.36 253.328 81.3333 250.555 78.72C247.835 76.1067 245.702 73.04 244.155 69.52C242.662 66 241.915 62.16 241.915 58C241.915 53.84 242.662 50 244.155 46.48C245.702 42.96 247.862 39.8933 250.635 37.28C253.408 34.6667 256.662 32.64 260.395 31.2C264.128 29.76 268.182 29.04 272.555 29.04C276.982 29.04 281.035 29.76 284.715 31.2C288.448 32.64 291.675 34.6667 294.395 37.28C297.168 39.8933 299.328 42.96 300.875 46.48C302.422 49.9467 303.195 53.7867 303.195 58C303.195 62.16 302.422 66.0267 300.875 69.6C299.328 73.12 297.168 76.1867 294.395 78.8C291.675 81.36 288.448 83.36 284.715 84.8C281.035 86.24 277.008 86.96 272.635 86.96ZM272.555 75.92C275.062 75.92 277.355 75.4933 279.435 74.64C281.568 73.7867 283.435 72.56 285.035 70.96C286.635 69.36 287.862 67.4667 288.715 65.28C289.622 63.0933 290.075 60.6667 290.075 58C290.075 55.3333 289.622 52.9067 288.715 50.72C287.862 48.5333 286.635 46.64 285.035 45.04C283.488 43.44 281.648 42.2133 279.515 41.36C277.382 40.5067 275.062 40.08 272.555 40.08C270.048 40.08 267.728 40.5067 265.595 41.36C263.515 42.2133 261.675 43.44 260.075 45.04C258.475 46.64 257.222 48.5333 256.315 50.72C255.462 52.9067 255.035 55.3333 255.035 58C255.035 60.6133 255.462 63.04 256.315 65.28C257.222 67.4667 258.448 69.36 259.995 70.96C261.595 72.56 263.462 73.7867 265.595 74.64C267.728 75.4933 270.048 75.92 272.555 75.92ZM337.495 86.64C333.868 86.64 330.695 85.84 327.975 84.24C325.255 82.64 323.122 80.2133 321.575 76.96C320.082 73.6533 319.335 69.4933 319.335 64.48C319.335 59.4133 320.055 55.2533 321.495 52C322.935 48.7467 325.015 46.32 327.735 44.72C330.455 43.12 333.708 42.32 337.495 42.32C341.548 42.32 345.175 43.2533 348.375 45.12C351.628 46.9333 354.188 49.4933 356.055 52.8C357.975 56.1067 358.935 60 358.935 64.48C358.935 69.0133 357.975 72.9333 356.055 76.24C354.188 79.5467 351.628 82.1067 348.375 83.92C345.175 85.7333 341.548 86.64 337.495 86.64ZM312.055 101.52V42.96H323.975V51.76L323.735 64.56L324.535 77.28V101.52H312.055ZM335.335 76.4C337.415 76.4 339.255 75.92 340.855 74.96C342.508 74 343.815 72.64 344.775 70.88C345.788 69.0667 346.295 66.9333 346.295 64.48C346.295 61.9733 345.788 59.84 344.775 58.08C343.815 56.32 342.508 54.96 340.855 54C339.255 53.04 337.415 52.56 335.335 52.56C333.255 52.56 331.388 53.04 329.735 54C328.082 54.96 326.775 56.32 325.815 58.08C324.855 59.84 324.375 61.9733 324.375 64.48C324.375 66.9333 324.855 69.0667 325.815 70.88C326.775 72.64 328.082 74 329.735 74.96C331.388 75.92 333.255 76.4 335.335 76.4ZM381.769 86.64C378.089 86.64 374.543 86.2133 371.129 85.36C367.769 84.4533 365.103 83.3333 363.129 82L367.289 73.04C369.263 74.2667 371.583 75.28 374.249 76.08C376.969 76.8267 379.636 77.2 382.249 77.2C385.129 77.2 387.156 76.8533 388.329 76.16C389.556 75.4667 390.169 74.5067 390.169 73.28C390.169 72.2667 389.689 71.52 388.729 71.04C387.823 70.5067 386.596 70.1067 385.049 69.84C383.503 69.5733 381.796 69.3067 379.929 69.04C378.116 68.7733 376.276 68.4267 374.409 68C372.543 67.52 370.836 66.8267 369.289 65.92C367.743 65.0133 366.489 63.7867 365.529 62.24C364.623 60.6933 364.169 58.6933 364.169 56.24C364.169 53.52 364.943 51.12 366.489 49.04C368.089 46.96 370.383 45.3333 373.369 44.16C376.356 42.9333 379.929 42.32 384.089 42.32C387.023 42.32 390.009 42.64 393.049 43.28C396.089 43.92 398.623 44.8533 400.649 46.08L396.489 54.96C394.409 53.7333 392.303 52.9067 390.169 52.48C388.089 52 386.063 51.76 384.089 51.76C381.316 51.76 379.289 52.1333 378.009 52.88C376.729 53.6267 376.089 54.5867 376.089 55.76C376.089 56.8267 376.543 57.6267 377.449 58.16C378.409 58.6933 379.663 59.12 381.209 59.44C382.756 59.76 384.436 60.0533 386.249 60.32C388.116 60.5333 389.983 60.88 391.849 61.36C393.716 61.84 395.396 62.5333 396.889 63.44C398.436 64.2933 399.689 65.4933 400.649 67.04C401.609 68.5333 402.089 70.5067 402.089 72.96C402.089 75.6267 401.289 78 399.689 80.08C398.089 82.1067 395.769 83.7067 392.729 84.88C389.743 86.0533 386.089 86.64 381.769 86.64Z" fill="url(#paint1_linear_73_2)"/>
<defs>
<linearGradient id="paint0_linear_73_2" x1="-98.0749" y1="-92.5" x2="504.461" y2="222.649" gradientUnits="userSpaceOnUse">
<stop stop-color="#6B7280"/>
<stop offset="0.652739" stop-color="#10B981"/>
</linearGradient>
<linearGradient id="paint1_linear_73_2" x1="0" y1="0" x2="322.649" y2="238.24" gradientUnits="userSpaceOnUse">
<stop stop-color="#6B7280"/>
<stop offset="0.65122" stop-color="#10B981"/>
</linearGradient>
</defs>
</svg>
